# xmcd
#
# Track frame offsets: 
#        150
#        13097
#        25140
#        36720
#        51720
#        59715
#        71355
#        87420
#        98197
#        108870
#        124972
#        133730
#        145557
#        158765
#
# Disc length: 2301 seconds
#
# Revision: 0
# Processed by: cddbd v1.5.1PL2 Copyright (c) Steve Scherf et al.
# Submitted via: ExactAudioCopy v0.95a5
#
DISCID=cd08fb0e
DTITLE=Erik Darling and Border Town - Border Town at Midnight
DYEAR=1994
DGENRE=Country
TTITLE0=Out on the Western Plains
TTITLE1=All Kinds a Love Songs
TTITLE2=Back to Love Again
TTITLE3=The Queen of Hearts
TTITLE4=Sante Fe Express
TTITLE5=Neon Spanish Graveyards
TTITLE6=When a Woman Gets the Blues
TTITLE7=Walk Right In
TTITLE8=Sound of the Railroad
TTITLE9=Too Far Away to Kiss You
TTITLE10=Sid's Special
TTITLE11=C.C. Rider
TTITLE12=Did the Poor Man Die?
TTITLE13=Border Town at Midnight
EXTD=
EXTT0=
EXTT1=
EXTT2=
EXTT3=
EXTT4=
EXTT5=
EXTT6=
EXTT7=
EXTT8=
EXTT9=
EXTT10=
EXTT11=
EXTT12=
EXTT13=
PLAYORDER=
